<?xml version="1.0" encoding="UTF-8" standalone="no"?>
<svg
   xmlns:dc="http://purl.org/dc/elements/1.1/"
   xmlns:cc="http://creativecommons.org/ns#"
   xmlns:rdf="http://www.w3.org/1999/02/22-rdf-syntax-ns#"
   xmlns:svg="http://www.w3.org/2000/svg"
   xmlns="http://www.w3.org/2000/svg"
   xmlns:sodipodi="http://sodipodi.sourceforge.net/DTD/sodipodi-0.dtd"
   xmlns:inkscape="http://www.inkscape.org/namespaces/inkscape"
   version="1.1"
   id="Layer_1"
   x="0px"
   y="0px"
   viewBox="0 0 841.89 595.28"
   style="enable-background:new 0 0 841.89 595.28;"
   xml:space="preserve"
   sodipodi:docname="hnyupal.svg"
   inkscape:version="1.0.1 (3bc2e813f5, 2020-09-07)"><metadata
   id="metadata119"><rdf:RDF><cc:Work
       rdf:about=""><dc:format>image/svg+xml</dc:format><dc:type
         rdf:resource="http://purl.org/dc/dcmitype/StillImage" /><dc:title></dc:title></cc:Work></rdf:RDF></metadata><defs
   id="defs117" /><sodipodi:namedview
   pagecolor="#ffffff"
   bordercolor="#666666"
   borderopacity="1"
   objecttolerance="10"
   gridtolerance="10"
   guidetolerance="10"
   inkscape:pageopacity="0"
   inkscape:pageshadow="2"
   inkscape:window-width="1366"
   inkscape:window-height="745"
   id="namedview115"
   showgrid="false"
   inkscape:zoom="0.3432903"
   inkscape:cx="365.42657"
   inkscape:cy="240.58778"
   inkscape:window-x="-8"
   inkscape:window-y="-8"
   inkscape:window-maximized="1"
   inkscape:current-layer="Layer_1" />
<style
   type="text/css"
   id="style2">
	.st0{fill:#0B43AC;}
	.st1{fill:#0A43AB;}
</style>




<g
   id="g112"
   transform="translate(-597.16223,-501.03367)">
	<path
   class="st0"
   d="m 808.78,794.55 c 0,-12.95 10.81,-23.48 24.1,-23.48 13.29,0 24.1,10.53 24.1,23.48 v 45.68 h 22.96 v -45.16 c 0,-26.8 -21.37,-48.6 -47.63,-48.6 -26.26,0 -47.63,21.8 -47.63,48.6 v 45.16 h 24.11 v -45.68 z"
   id="path78" />
	<path
   class="st1"
   d="m 912.61,844.1 h -2.06 c -1.58,0 -2.86,-1.28 -2.86,-2.86 v -16.98 c 0,-1.58 1.28,-2.86 2.86,-2.86 h 2.06 c 1.58,0 2.86,1.28 2.86,2.86 v 16.98 c -0.01,1.58 -1.28,2.86 -2.86,2.86 z"
   id="path80" />
	<path
   class="st1"
   d="m 947.84,823.8 h -2.06 c -1.58,0 -2.86,-1.28 -2.86,-2.86 v -16.98 c 0,-1.58 1.28,-2.86 2.86,-2.86 h 2.06 c 1.58,0 2.86,1.28 2.86,2.86 v 16.98 c -0.01,1.59 -1.28,2.86 -2.86,2.86 z"
   id="path82" />
	<path
   class="st1"
   d="m 1100.6,843.67 h -2.02 c -1.55,0 -2.8,-1.25 -2.8,-2.8 v -36.69 c 0,-1.55 1.25,-2.8 2.8,-2.8 h 2.02 c 1.55,0 2.8,1.25 2.8,2.8 v 36.69 c -0.01,1.55 -1.26,2.8 -2.8,2.8 z"
   id="path84" />
	<path
   class="st1"
   d="m 1146.97,843.83 -1.75,-1.01 c -1.34,-0.77 -1.8,-2.48 -1.02,-3.82 l 13.33,-23.09 c 0.77,-1.34 2.48,-1.8 3.82,-1.02 l 1.75,1.01 c 1.34,0.77 1.8,2.48 1.02,3.82 l -13.33,23.09 c -0.77,1.34 -2.49,1.79 -3.82,1.02 z"
   id="path86" />
	<path
   class="st1"
   d="m 1191.14,842.29 -1.75,1.01 c -1.34,0.77 -3.05,0.31 -3.82,-1.02 l -20.82,-36.06 c -0.77,-1.34 -0.31,-3.05 1.02,-3.82 l 1.75,-1.01 c 1.34,-0.77 3.05,-0.31 3.82,1.02 l 20.82,36.06 c 0.77,1.34 0.32,3.05 -1.02,3.82 z"
   id="path88" />
	<path
   class="st1"
   d="m 985.87,812.68 -1.17,1.42 c -0.9,1.08 -2.5,1.23 -3.58,0.34 l -9.46,-7.82 c -1.08,-0.9 -1.23,-2.5 -0.34,-3.58 l 1.17,-1.42 c 0.9,-1.08 2.5,-1.23 3.58,-0.34 l 9.46,7.82 c 1.09,0.89 1.24,2.49 0.34,3.58 z"
   id="path90" />
	<g
   id="g96">
		<path
   class="st1"
   d="m 1217.21,843.67 h -2.02 c -1.55,0 -2.8,-1.25 -2.8,-2.8 v -36.69 c 0,-1.55 1.25,-2.8 2.8,-2.8 h 2.02 c 1.55,0 2.8,1.25 2.8,2.8 v 36.69 c 0,1.55 -1.26,2.8 -2.8,2.8 z"
   id="path92" />
		<path
   class="st1"
   d="m 1249.64,839.26 v 1.84 c 0,1.41 -1.14,2.54 -2.54,2.54 h -17.06 c -1.41,0 -2.54,-1.14 -2.54,-2.54 v -1.84 c 0,-1.41 1.14,-2.54 2.54,-2.54 h 17.06 c 1.4,0 2.54,1.14 2.54,2.54 z"
   id="path94" />
	</g>
	<path
   class="st1"
   d="m 1171.9,829.84 v 1.84 c 0,1.41 -1.14,2.54 -2.54,2.54 h -17.06 c -1.41,0 -2.54,-1.14 -2.54,-2.54 v -1.84 c 0,-1.41 1.14,-2.54 2.54,-2.54 h 17.06 c 1.4,0 2.54,1.13 2.54,2.54 z"
   id="path98" />
	<path
   class="st1"
   d="m 950.77,842.13 -1.45,1.45 c -1.11,1.11 -2.91,1.11 -4.01,0 L 908.3,806.57 c -1.11,-1.11 -1.11,-2.91 0,-4.01 l 1.45,-1.45 c 1.11,-1.11 2.91,-1.11 4.01,0 l 37.01,37.01 c 1.11,1.11 1.11,2.9 0,4.01 z"
   id="path100" />
	<path
   class="st1"
   d="m 1011.79,802.96 v 0 c -1.59,-1.8 -4.24,-1.86 -5.92,-0.14 l -15.29,15.65 c -0.88,0.9 -1.32,2.12 -1.3,3.34 -0.01,0.13 -0.03,0.26 -0.03,0.4 l -0.42,17.12 c -0.06,2.48 1.76,4.54 4.08,4.6 2.32,0.06 4.23,-1.91 4.3,-4.39 l 0.39,-15.83 14.05,-14.37 c 1.67,-1.74 1.74,-4.59 0.14,-6.38 z"
   id="path102" />
	<g
   id="g108">
		<path
   class="st1"
   d="m 1073.95,804.33 c -0.03,-2.08 -1.4,-3.66 -3.32,-3.84 -1.75,-0.17 -3.5,1.14 -3.99,2.98 -0.16,0.59 -0.16,1.19 -0.15,1.77 v 0.22 c 0,1.79 0,3.57 0.01,5.36 0.01,4.03 0.02,8.19 -0.07,12.28 -0.03,1.58 -0.36,3.31 -0.96,5.13 -1.02,3.06 -3.49,4.9 -6.01,6.44 -1.51,0.92 -2.19,2.46 -1.8,4.11 0.38,1.64 1.62,2.66 3.24,2.67 0.01,0 0.03,0 0.04,0 1.08,0 2.2,-0.29 3,-0.78 6.14,-3.77 9.47,-8.86 9.91,-15.14 0.16,-2.31 0.12,-4.66 0.08,-6.93 -0.01,-0.82 -0.03,-1.64 -0.03,-2.46 h 0.09 v -0.64 c 0,-1.09 0,-2.17 0.01,-3.26 -0.02,-2.6 -0.01,-5.28 -0.05,-7.91 z"
   id="path104" />
		<path
   class="st1"
   d="m 1048.52,834.59 c -4.69,-2.78 -6.93,-6.65 -6.85,-11.84 0.07,-4.68 0.05,-9.43 0.02,-14.02 l -0.02,-3.81 c -0.01,-2.48 -1.67,-4.43 -3.79,-4.44 -2.22,-0.01 -3.7,1.75 -3.73,4.38 -0.02,2.42 -0.02,4.83 -0.01,7.25 0,0.81 0,1.63 0,2.44 l -0.01,0.64 c 0,0.73 0.01,1.45 0.01,2.17 0.02,1.58 0.03,3.21 -0.03,4.8 -0.17,4.32 0.68,7.93 2.58,11.04 2.55,4.17 5.38,6.71 8.91,8 0.51,0.19 1.01,0.28 1.49,0.28 1.43,0 2.65,-0.82 3.3,-2.3 0.67,-1.5 -0.19,-3.6 -1.87,-4.59 z"
   id="path106" />
	</g>
	<path
   class="st1"
   d="m 1129.07,807.79 c -3.34,-4.97 -8.18,-7.13 -14.81,-6.6 -2.33,0.18 -3.7,1.63 -3.65,3.87 0.05,2.23 1.47,3.61 3.82,3.7 0.52,0.02 1.04,0.02 1.56,0.02 0.32,0 0.63,0 0.95,0 3.73,0.04 6.47,2.68 6.66,6.47 v 0.1 0.19 c -0.19,3.73 -2.93,6.37 -6.66,6.41 -0.32,0 -0.63,0 -0.95,0 -0.52,0 -1.04,-0.01 -1.56,0.02 -2.34,0.09 -3.77,1.48 -3.82,3.7 -0.05,2.24 1.32,3.69 3.65,3.88 0.65,0.05 1.28,0.08 1.89,0.08 5.67,0 9.91,-2.2 12.92,-6.68 1.38,-2.05 2.02,-4.38 2.07,-7.58 -0.05,-3.19 -0.69,-5.53 -2.07,-7.58 z"
   id="path110" />
</g>
</svg>
