<?xml version="1.0" encoding="UTF-8" standalone="no"?>
<svg
   xmlns:dc="http://purl.org/dc/elements/1.1/"
   xmlns:cc="http://creativecommons.org/ns#"
   xmlns:rdf="http://www.w3.org/1999/02/22-rdf-syntax-ns#"
   xmlns:svg="http://www.w3.org/2000/svg"
   xmlns="http://www.w3.org/2000/svg"
   xmlns:sodipodi="http://sodipodi.sourceforge.net/DTD/sodipodi-0.dtd"
   xmlns:inkscape="http://www.inkscape.org/namespaces/inkscape"
   version="1.1"
   id="Layer_1"
   x="0px"
   y="0px"
   viewBox="0 0 841.89 595.28"
   style="enable-background:new 0 0 841.89 595.28;"
   xml:space="preserve"
   sodipodi:docname="nnyupal.svg"
   inkscape:version="1.0.1 (3bc2e813f5, 2020-09-07)"><metadata
   id="metadata119"><rdf:RDF><cc:Work
       rdf:about=""><dc:format>image/svg+xml</dc:format><dc:type
         rdf:resource="http://purl.org/dc/dcmitype/StillImage" /><dc:title></dc:title></cc:Work></rdf:RDF></metadata><defs
   id="defs117" /><sodipodi:namedview
   pagecolor="#ffffff"
   bordercolor="#666666"
   borderopacity="1"
   objecttolerance="10"
   gridtolerance="10"
   guidetolerance="10"
   inkscape:pageopacity="0"
   inkscape:pageshadow="2"
   inkscape:window-width="1366"
   inkscape:window-height="745"
   id="namedview115"
   showgrid="false"
   inkscape:zoom="0.3432903"
   inkscape:cx="402.35676"
   inkscape:cy="62.875841"
   inkscape:window-x="-8"
   inkscape:window-y="-8"
   inkscape:window-maximized="1"
   inkscape:current-layer="Layer_1" />
<style
   type="text/css"
   id="style2">
	.st0{fill:#0B43AC;}
	.st1{fill:#0A43AB;}
</style>


<g
   id="g40">
	<path
   class="st1"
   d="M146.27,333.55h-0.73c-3.33,0-6.04-2.7-6.04-6.04v-25.28c0-3.33,2.7-6.04,6.04-6.04h0.73   c3.33,0,6.04,2.7,6.04,6.04v25.28C152.3,330.84,149.6,333.55,146.27,333.55z"
   id="path8" />
	<path
   class="st1"
   d="M204.26,300.14h-0.73c-3.33,0-6.04-2.7-6.04-6.04v-25.28c0-3.33,2.7-6.04,6.04-6.04h0.73   c3.33,0,6.04,2.7,6.04,6.04v25.28C210.3,297.44,207.59,300.14,204.26,300.14z"
   id="path10" />
	<path
   class="st1"
   d="M455.74,332.85h-0.71c-3.27,0-5.91-2.65-5.91-5.91v-57.79c0-3.27,2.65-5.91,5.91-5.91h0.71   c3.27,0,5.91,2.65,5.91,5.91v57.79C461.65,330.2,459,332.85,455.74,332.85z"
   id="path12" />
	<path
   class="st1"
   d="M532.24,332.46l-0.62-0.36c-2.83-1.63-3.8-5.25-2.16-8.08l20.64-35.75c1.63-2.83,5.25-3.8,8.08-2.16l0.62,0.36   c2.83,1.63,3.8,5.25,2.16,8.08l-20.64,35.75C538.69,333.12,535.07,334.09,532.24,332.46z"
   id="path14" />
	<path
   class="st1"
   d="M604.95,331.23l-0.62,0.36c-2.83,1.63-6.44,0.66-8.08-2.16l-32.96-57.09c-1.63-2.83-0.66-6.44,2.16-8.08   l0.62-0.36c2.83-1.63,6.44-0.66,8.08,2.16l32.96,57.09C608.75,325.98,607.78,329.59,604.95,331.23z"
   id="path16" />
	<path
   class="st1"
   d="M267.45,282.75l-0.41,0.5c-1.89,2.29-5.28,2.61-7.57,0.72l-13.73-11.36c-2.29-1.89-2.61-5.28-0.72-7.57   l0.41-0.5c1.89-2.29,5.28-2.61,7.57-0.72l13.73,11.36C269.02,277.07,269.34,280.46,267.45,282.75z"
   id="path18" />
	<g
   id="g24">
		<path
   class="st1"
   d="M647.69,332.85h-0.71c-3.27,0-5.91-2.65-5.91-5.91v-57.79c0-3.27,2.65-5.91,5.91-5.91h0.71    c3.27,0,5.91,2.65,5.91,5.91v57.79C653.6,330.2,650.96,332.85,647.69,332.85z"
   id="path20" />
		<path
   class="st1"
   d="M702.38,326.78v0.65c0,2.97-2.41,5.38-5.38,5.38h-25.71c-2.97,0-5.38-2.41-5.38-5.38v-0.65    c0-2.97,2.41-5.38,5.38-5.38H697C699.97,321.4,702.38,323.81,702.38,326.78z"
   id="path22" />
	</g>
	<path
   class="st1"
   d="M574.41,311.27v0.65c0,2.97-2.41,5.38-5.38,5.38h-25.71c-2.97,0-5.38-2.41-5.38-5.38v-0.65   c0-2.97,2.41-5.38,5.38-5.38h25.71C572,305.89,574.41,308.3,574.41,311.27z"
   id="path26" />
	<path
   class="st1"
   d="M209.48,331.25l-0.51,0.51c-2.34,2.34-6.14,2.34-8.48,0l-59.05-59.05c-2.34-2.34-2.34-6.14,0-8.48l0.51-0.51   c2.34-2.34,6.14-2.34,8.48,0l59.05,59.05C211.82,325.11,211.82,328.91,209.48,331.25z"
   id="path28" />
	<path
   class="st1"
   d="M310.87,265.83L310.87,265.83c-2.62-2.96-6.98-3.06-9.74-0.24l-25.17,25.75c-1.46,1.49-2.17,3.5-2.14,5.49   c-0.02,0.22-0.04,0.43-0.05,0.65l-0.69,28.18c-0.1,4.09,2.9,7.48,6.71,7.57s6.97-3.15,7.07-7.23l0.64-26.06l23.12-23.65   C313.38,273.47,313.49,268.79,310.87,265.83z"
   id="path30" />
	<g
   id="g36">
		<path
   class="st1"
   d="M413.19,268.08c-0.05-3.42-2.3-6.02-5.46-6.33c-2.87-0.29-5.76,1.88-6.56,4.91    c-0.26,0.97-0.26,1.96-0.25,2.91l0,0.35c-0.01,2.94,0,5.88,0.01,8.83c0.02,6.63,0.03,13.48-0.11,20.21    c-0.06,2.61-0.59,5.45-1.59,8.45c-1.67,5.03-5.74,8.07-9.89,10.61c-2.49,1.52-3.6,4.05-2.97,6.77c0.62,2.69,2.66,4.38,5.33,4.39    c0.02,0,0.04,0,0.06,0c1.78,0,3.62-0.48,4.94-1.29c10.11-6.2,15.59-14.59,16.31-24.92c0.26-3.8,0.19-7.66,0.13-11.4    c-0.02-1.35-0.05-2.7-0.06-4.05h0.15v-1.06c0-1.79,0.01-3.58,0.01-5.37C413.24,276.83,413.25,272.42,413.19,268.08z"
   id="path32" />
		<path
   class="st1"
   d="M371.33,317.9c-7.71-4.57-11.4-10.94-11.28-19.49c0.11-7.7,0.08-15.52,0.04-23.08l-0.03-6.28    c-0.01-4.08-2.75-7.29-6.24-7.31c-3.65-0.02-6.09,2.88-6.13,7.22c-0.04,3.98-0.03,7.96-0.02,11.93c0,1.34,0.01,2.68,0.01,4.02    l-0.01,1.06c0,1.19,0.01,2.39,0.02,3.58c0.03,2.59,0.05,5.28-0.05,7.9c-0.28,7.11,1.11,13.05,4.25,18.17    c4.2,6.86,8.86,11.04,14.66,13.18c0.84,0.31,1.66,0.46,2.45,0.46c2.35,0,4.36-1.35,5.42-3.79    C375.5,322.99,374.08,319.53,371.33,317.9z"
   id="path34" />
	</g>
	<path
   class="st1"
   d="M503.92,273.79c-5.5-8.18-13.47-11.74-24.38-10.87c-3.84,0.3-6.09,2.69-6.01,6.38   c0.08,3.66,2.43,5.94,6.28,6.1c0.86,0.03,1.72,0.03,2.57,0.02c0.52,0,1.04-0.01,1.56,0c6.14,0.07,10.66,4.41,10.97,10.65l0,0.16   l0,0.31c-0.31,6.14-4.82,10.48-10.97,10.55c-0.52,0.01-1.04,0-1.56,0c-0.86-0.01-1.72-0.01-2.57,0.02   c-3.86,0.15-6.21,2.43-6.28,6.09c-0.08,3.69,2.17,6.07,6.01,6.38c1.07,0.08,2.1,0.13,3.12,0.13c9.33,0,16.3-3.62,21.27-11   c2.27-3.37,3.32-7.21,3.4-12.48C507.24,281,506.19,277.16,503.92,273.79z"
   id="path38" />
</g>


</svg>
