<?xml version="1.0" encoding="UTF-8" standalone="no"?>
<svg
   xmlns:dc="http://purl.org/dc/elements/1.1/"
   xmlns:cc="http://creativecommons.org/ns#"
   xmlns:rdf="http://www.w3.org/1999/02/22-rdf-syntax-ns#"
   xmlns:svg="http://www.w3.org/2000/svg"
   xmlns="http://www.w3.org/2000/svg"
   xmlns:sodipodi="http://sodipodi.sourceforge.net/DTD/sodipodi-0.dtd"
   xmlns:inkscape="http://www.inkscape.org/namespaces/inkscape"
   version="1.1"
   id="Layer_1"
   x="0px"
   y="0px"
   viewBox="0 0 841.89 595.28"
   style="enable-background:new 0 0 841.89 595.28;"
   xml:space="preserve"
   sodipodi:docname="nyupal.svg"
   inkscape:version="1.0.1 (3bc2e813f5, 2020-09-07)"><metadata
   id="metadata119"><rdf:RDF><cc:Work
       rdf:about=""><dc:format>image/svg+xml</dc:format><dc:type
         rdf:resource="http://purl.org/dc/dcmitype/StillImage" /><dc:title></dc:title></cc:Work></rdf:RDF></metadata><defs
   id="defs117" /><sodipodi:namedview
   pagecolor="#ffffff"
   bordercolor="#666666"
   borderopacity="1"
   objecttolerance="10"
   gridtolerance="10"
   guidetolerance="10"
   inkscape:pageopacity="0"
   inkscape:pageshadow="2"
   inkscape:window-width="1366"
   inkscape:window-height="745"
   id="namedview115"
   showgrid="false"
   inkscape:zoom="0.4854858"
   inkscape:cx="551.31018"
   inkscape:cy="433.1898"
   inkscape:window-x="-8"
   inkscape:window-y="-8"
   inkscape:window-maximized="1"
   inkscape:current-layer="Layer_1" />
<style
   type="text/css"
   id="style2">
	.st0{fill:#0B43AC;}
	.st1{fill:#0A43AB;}
</style>

<path
   class="st0"
   d="M374.67,252.73c0-25.14,20.99-45.59,46.8-45.59c25.8,0,46.8,20.45,46.8,45.59v88.71h44.59v-87.71  c0-52.04-41.49-94.38-92.5-94.38s-92.5,42.34-92.5,94.38v87.71h46.82V252.73z"
   id="path6"
   inkscape:export-xdpi="96"
   inkscape:export-ydpi="96" />
<g
   id="g40"
   inkscape:export-xdpi="96"
   inkscape:export-ydpi="96">
	<path
   class="st1"
   d="M160.91,435.93L160.91,435.93c-3.33,0-6.04-2.7-6.04-6.04v-23.17c0-3.33,2.7-6.04,6.04-6.04l0,0   c3.33,0,6.04,2.7,6.04,6.04v23.17C166.94,433.22,164.24,435.93,160.91,435.93z"
   id="path8" />
	<path
   class="st1"
   d="M215.61,404.42L215.61,404.42c-3.33,0-6.04-2.7-6.04-6.04v-23.17c0-3.33,2.7-6.04,6.04-6.04h0   c3.33,0,6.04,2.7,6.04,6.04v23.17C221.65,401.71,218.94,404.42,215.61,404.42z"
   id="path10" />
	<path
   class="st1"
   d="M452.83,435.26L452.83,435.26c-3.27,0-5.91-2.65-5.91-5.91v-53.84c0-3.27,2.65-5.91,5.91-5.91l0,0   c3.27,0,5.91,2.65,5.91,5.91v53.84C458.75,432.62,456.1,435.26,452.83,435.26z"
   id="path12" />
	<path
   class="st1"
   d="M525.04,434.73L525.04,434.73c-2.83-1.63-3.8-5.25-2.16-8.08l19.13-33.14c1.63-2.83,5.25-3.8,8.08-2.16h0   c2.83,1.63,3.8,5.25,2.16,8.08l-19.13,33.14C531.49,435.39,527.87,436.36,525.04,434.73z"
   id="path14" />
	<path
   class="st1"
   d="M593.63,433.9L593.63,433.9c-2.83,1.63-6.44,0.66-8.08-2.16l-30.75-53.27c-1.63-2.83-0.66-6.44,2.16-8.08l0,0   c2.83-1.63,6.44-0.66,8.08,2.16l30.75,53.27C597.43,428.65,596.46,432.27,593.63,433.9z"
   id="path16" />
	<path
   class="st1"
   d="M275.36,388.24L275.36,388.24c-1.89,2.29-5.28,2.61-7.57,0.72l-12.48-10.32c-2.29-1.89-2.61-5.28-0.72-7.57h0   c1.89-2.29,5.28-2.61,7.57-0.72l12.48,10.32C276.93,382.56,277.25,385.95,275.36,388.24z"
   id="path18" />
	<g
   id="g24">
		<path
   class="st1"
   d="M633.9,435.26L633.9,435.26c-3.27,0-5.91-2.65-5.91-5.91v-53.84c0-3.27,2.65-5.91,5.91-5.91l0,0    c3.27,0,5.91,2.65,5.91,5.91v53.84C639.81,432.62,637.17,435.26,633.9,435.26z"
   id="path20" />
		<path
   class="st1"
   d="M685.83,429.85L685.83,429.85c0,2.97-2.41,5.38-5.38,5.38h-23.64c-2.97,0-5.38-2.41-5.38-5.38l0,0    c0-2.97,2.41-5.38,5.38-5.38h23.64C683.42,424.47,685.83,426.88,685.83,429.85z"
   id="path22" />
	</g>
	<path
   class="st1"
   d="M565.11,415.22L565.11,415.22c0,2.97-2.41,5.38-5.38,5.38h-23.64c-2.97,0-5.38-2.41-5.38-5.38l0,0   c0-2.97,2.41-5.38,5.38-5.38h23.64C562.71,409.84,565.11,412.25,565.11,415.22z"
   id="path26" />
	<path
   class="st1"
   d="M220.64,434L220.64,434c-2.34,2.34-6.14,2.34-8.48,0l-55.22-55.22c-2.34-2.34-2.34-6.14,0-8.48h0   c2.34-2.34,6.14-2.34,8.48,0l55.22,55.22C222.98,427.86,222.98,431.66,220.64,434z"
   id="path28" />
	<path
   class="st1"
   d="M316.52,372.05L316.52,372.05c-2.47-2.79-6.59-2.89-9.19-0.22l-23.75,24.29c-1.37,1.4-2.04,3.3-2.02,5.18   c-0.02,0.2-0.04,0.41-0.04,0.62l-0.65,26.58c-0.09,3.86,2.74,7.05,6.33,7.14c3.59,0.09,6.58-2.97,6.67-6.82l0.6-24.58l21.81-22.31   C318.88,379.26,318.99,374.84,316.52,372.05z"
   id="path30" />
	<g
   id="g36">
		<path
   class="st1"
   d="M413.03,374.17c-0.05-3.23-2.17-5.68-5.15-5.97c-2.71-0.27-5.43,1.78-6.19,4.63    c-0.24,0.92-0.24,1.85-0.24,2.74l0,0.33c-0.01,2.78,0,5.55,0.01,8.33c0.02,6.25,0.03,12.71-0.1,19.06    c-0.05,2.46-0.56,5.14-1.5,7.97c-1.58,4.74-5.42,7.61-9.33,10.01c-2.35,1.44-3.4,3.82-2.8,6.38c0.59,2.54,2.51,4.13,5.02,4.14    c0.02,0,0.04,0,0.06,0c1.68,0,3.41-0.45,4.66-1.21c9.53-5.85,14.71-13.76,15.38-23.51c0.25-3.58,0.18-7.23,0.12-10.75    c-0.02-1.27-0.04-2.55-0.05-3.82h0.15v-1c0-1.69,0-3.38,0.01-5.06C413.08,382.42,413.09,378.27,413.03,374.17z"
   id="path32" />
		<path
   class="st1"
   d="M373.55,421.17c-7.28-4.31-10.76-10.32-10.64-18.39c0.11-7.26,0.07-14.64,0.04-21.77l-0.03-5.92    c-0.01-3.85-2.6-6.88-5.88-6.9c-3.45-0.02-5.75,2.72-5.79,6.81c-0.04,3.75-0.03,7.5-0.02,11.26c0,1.26,0.01,2.53,0.01,3.79    l-0.01,1c0,1.13,0.01,2.25,0.02,3.38c0.02,2.45,0.05,4.98-0.05,7.45c-0.26,6.71,1.05,12.31,4.01,17.14    c3.96,6.47,8.36,10.42,13.83,12.43c0.79,0.29,1.57,0.43,2.31,0.43c2.22,0,4.11-1.27,5.12-3.57    C377.48,425.97,376.15,422.71,373.55,421.17z"
   id="path34" />
	</g>
	<path
   class="st1"
   d="M498.62,379.56c-5.19-7.72-12.71-11.08-23-10.25c-3.62,0.29-5.74,2.54-5.67,6.02   c0.07,3.46,2.29,5.61,5.93,5.75c0.81,0.03,1.62,0.03,2.43,0.02c0.49,0,0.98-0.01,1.47,0c5.8,0.07,10.05,4.16,10.35,10.05l0,0.16   l0,0.29c-0.3,5.79-4.55,9.88-10.35,9.95c-0.49,0.01-0.98,0-1.47,0c-0.81-0.01-1.62-0.01-2.43,0.02c-3.64,0.14-5.86,2.29-5.93,5.75   c-0.07,3.48,2.04,5.73,5.67,6.02c1.01,0.08,1.98,0.12,2.94,0.12c8.8,0,15.38-3.41,20.06-10.38c2.14-3.18,3.13-6.8,3.21-11.78   C501.75,386.36,500.76,382.74,498.62,379.56z"
   id="path38" />
</g>


</svg>
